<?xml version="1.0" encoding="iso-8859-1"?>
<!-- Uploaded to: SVG Repo, www.svgrepo.com, Generator: SVG Repo Mixer Tools -->
<svg fill="#000000" height="800px" width="800px" version="1.1" id="Layer_1" xmlns="http://www.w3.org/2000/svg" xmlns:xlink="http://www.w3.org/1999/xlink" 
	 viewBox="0 0 511.999 511.999" xml:space="preserve">
<g>
	<g>
		<path d="M276.337,81.8V20.338C276.337,9.106,267.231,0,255.999,0c-11.232,0-20.338,9.106-20.338,20.338V81.8
			c-72.127,8.843-130.109,64.088-143.082,134.875h326.839C406.446,145.888,348.464,90.644,276.337,81.8z"/>
	</g>
</g>
<g>
	<g>
		<path d="M485.839,233.914h-30.161H67.816H26.159c-11.232,0-20.338,9.106-20.338,20.338v237.409
			c0,11.232,9.106,20.338,20.338,20.338h459.68c11.232,0,20.338-9.106,20.338-20.338V254.252
			C506.177,243.02,497.071,233.914,485.839,233.914z M154.831,439.276h-30.176c-11.232,0-20.338-9.106-20.338-20.338
			s9.106-20.338,20.338-20.338h30.176c11.232,0,20.338,9.106,20.338,20.338S166.063,439.276,154.831,439.276z M154.831,359.963
			h-30.176c-11.232,0-20.338-9.106-20.338-20.338c0-11.232,9.106-20.338,20.338-20.338h30.176c11.232,0,20.338,9.106,20.338,20.338
			C175.169,350.857,166.063,359.963,154.831,359.963z M271.087,439.276h-30.176c-11.232,0-20.338-9.106-20.338-20.338
			s9.106-20.338,20.338-20.338h30.176c11.232,0,20.338,9.106,20.338,20.338S282.319,439.276,271.087,439.276z M271.087,359.963
			h-30.176c-11.232,0-20.338-9.106-20.338-20.338c0-11.232,9.106-20.338,20.338-20.338h30.176c11.232,0,20.338,9.106,20.338,20.338
			C291.425,350.857,282.319,359.963,271.087,359.963z M387.344,439.276h-30.176c-11.232,0-20.338-9.106-20.338-20.338
			s9.105-20.338,20.338-20.338h30.176c11.232,0,20.338,9.106,20.338,20.338S398.575,439.276,387.344,439.276z M387.344,359.963
			h-30.176c-11.233,0-20.338-9.106-20.338-20.338c0-11.232,9.106-20.338,20.338-20.338h30.176c11.232,0,20.338,9.106,20.338,20.338
			C407.681,350.857,398.575,359.963,387.344,359.963z"/>
	</g>
</g>
</svg>